<svg width="14" height="14" viewBox="0 0 14 14" fill="none" xmlns="http://www.w3.org/2000/svg">
<path d="M6.9987 0.333984C3.3187 0.333984 0.332031 3.32065 0.332031 7.00065C0.332031 10.6807 3.3187 13.6673 6.9987 13.6673C10.6787 13.6673 13.6654 10.6807 13.6654 7.00065C13.6654 3.32065 10.6787 0.333984 6.9987 0.333984ZM6.9987 12.334C4.0587 12.334 1.66536 9.94065 1.66536 7.00065C1.66536 4.06065 4.0587 1.66732 6.9987 1.66732C9.9387 1.66732 12.332 4.06065 12.332 7.00065C12.332 9.94065 9.9387 12.334 6.9987 12.334ZM10.0587 4.05398L5.66537 8.44732L3.9387 6.72732L2.9987 7.66732L5.66537 10.334L10.9987 5.00065L10.0587 4.05398Z" fill="#282531"/>
</svg>
