<svg width="16" height="18" viewBox="0 0 16 18" fill="none" xmlns="http://www.w3.org/2000/svg">
<path d="M10.918 15.666H2.58464V4.83268C2.58464 4.37435 2.20964 3.99935 1.7513 3.99935C1.29297 3.99935 0.917969 4.37435 0.917969 4.83268V15.666C0.917969 16.5827 1.66797 17.3327 2.58464 17.3327H10.918C11.3763 17.3327 11.7513 16.9577 11.7513 16.4993C11.7513 16.041 11.3763 15.666 10.918 15.666ZM15.0846 12.3327V2.33268C15.0846 1.41602 14.3346 0.666016 13.418 0.666016H5.91797C5.0013 0.666016 4.2513 1.41602 4.2513 2.33268V12.3327C4.2513 13.2493 5.0013 13.9993 5.91797 13.9993H13.418C14.3346 13.9993 15.0846 13.2493 15.0846 12.3327ZM13.418 12.3327H5.91797V2.33268H13.418V12.3327Z" fill="#282531"/>
</svg>
