<svg width="20" height="20" viewBox="0 0 20 20" fill="none" xmlns="http://www.w3.org/2000/svg">
<path d="M16.668 3.33203H3.33464C2.41797 3.33203 1.6763 4.08203 1.6763 4.9987L1.66797 14.9987C1.66797 15.9154 2.41797 16.6654 3.33464 16.6654H16.668C17.5846 16.6654 18.3346 15.9154 18.3346 14.9987V4.9987C18.3346 4.08203 17.5846 3.33203 16.668 3.33203ZM16.3346 6.8737L10.443 10.557C10.1763 10.7237 9.8263 10.7237 9.55964 10.557L3.66797 6.8737C3.45964 6.74036 3.33464 6.51536 3.33464 6.2737C3.33464 5.71536 3.94297 5.38203 4.41797 5.6737L10.0013 9.16536L15.5846 5.6737C16.0596 5.38203 16.668 5.71536 16.668 6.2737C16.668 6.51536 16.543 6.74036 16.3346 6.8737Z" fill="#282531"/>
</svg>
