<svg width="18" height="24" viewBox="0 0 18 24" fill="none" xmlns="http://www.w3.org/2000/svg">
<g clip-path="url(#clip0_764_56661)">
<path d="M11.4781 0.721991C10.7021 0.475078 9.85557 0.333984 8.99137 0.333984C6.5046 0.333984 4.26474 1.46273 2.76562 3.24404L6.61042 6.47155L11.4781 0.721991Z" fill="#1A73E8"/>
<path d="M2.76414 3.24609C1.58248 4.65703 0.859375 6.49124 0.859375 8.46655C0.859375 10.0009 1.1592 11.2355 1.67066 12.3466L6.60893 6.47361L2.76414 3.24609Z" fill="#EA4335"/>
<path d="M9.01187 5.35915C10.7403 5.35915 12.1336 6.75245 12.1336 8.48084C12.1336 9.23922 11.8514 9.94469 11.3928 10.4914C11.3928 10.4914 13.8443 7.56374 16.2429 4.72423C15.2553 2.81947 13.5445 1.37326 11.481 0.720703L6.61328 6.47026C7.19529 5.80007 8.04185 5.35915 9.01187 5.35915Z" fill="#4285F4"/>
<path d="M9.01264 11.5873C7.28425 11.5873 5.89095 10.194 5.89095 8.4656C5.89095 7.70722 6.1555 7.00176 6.61405 6.47266L1.67578 12.3457C2.52234 14.2152 3.93328 15.7319 5.37948 17.619L11.3936 10.4762C10.8116 11.164 9.96502 11.5873 9.01264 11.5873Z" fill="#FBBC04"/>
<path d="M11.2833 19.5943C13.9993 15.3438 17.1563 13.4214 17.1563 8.48318C17.1563 7.12515 16.8212 5.85531 16.2392 4.72656L5.375 17.619C5.83355 18.2186 6.30974 18.9065 6.7683 19.6119C8.42615 22.1692 7.96759 23.686 9.02579 23.686C10.084 23.686 9.62544 22.1516 11.2833 19.5943Z" fill="#34A853"/>
</g>
<defs>
<clipPath id="clip0_764_56661">
<rect width="16.2787" height="23.3333" fill="white" transform="translate(0.859375 0.333984)"/>
</clipPath>
</defs>
</svg>
