<svg width="22" height="22" viewBox="0 0 22 22" fill="none" xmlns="http://www.w3.org/2000/svg">
<g clip-path="url(#clip0_2381_4901)">
<path d="M21.4536 11.1963C21.4536 10.3334 21.3836 9.70376 21.232 9.05078H11.3789V12.9453H17.1625C17.0459 13.9132 16.4162 15.3708 15.017 16.3502L14.9973 16.4806L18.1127 18.894L18.3285 18.9156C20.3108 17.0848 21.4536 14.3912 21.4536 11.1963Z" fill="#4285F4"/>
<path d="M11.379 21.4579C14.2124 21.4579 16.5911 20.525 18.3286 18.9159L15.017 16.3506C14.1308 16.9686 12.9414 17.4 11.379 17.4C8.60379 17.4 6.24839 15.5694 5.40875 13.0391L5.28568 13.0495L2.04627 15.5565L2.00391 15.6743C3.72964 19.1024 7.27444 21.4579 11.379 21.4579Z" fill="#34A853"/>
<path d="M5.40704 13.0406C5.18549 12.3876 5.05728 11.688 5.05728 10.9651C5.05728 10.2421 5.18549 9.54245 5.39538 8.88948L5.38951 8.75041L2.10951 6.20312L2.00219 6.25417C1.29093 7.67677 0.882812 9.27429 0.882812 10.9651C0.882812 12.6558 1.29093 14.2533 2.00219 15.6759L5.40704 13.0406Z" fill="#FBBC05"/>
<path d="M11.379 4.52657C13.3496 4.52657 14.6788 5.37778 15.4368 6.08912L18.3985 3.1973C16.5796 1.50654 14.2124 0.46875 11.379 0.46875C7.27444 0.46875 3.72964 2.82415 2.00391 6.25231L5.39709 8.88761C6.24839 6.35729 8.60379 4.52657 11.379 4.52657Z" fill="#EB4335"/>
</g>
<defs>
<clipPath id="clip0_2381_4901">
<rect width="20.5789" height="21.0612" fill="white" transform="translate(0.882812 0.46875)"/>
</clipPath>
</defs>
</svg>
