<svg width="25" height="20" viewBox="0 0 25 20" fill="none" xmlns="http://www.w3.org/2000/svg">
<path d="M21.832 0.667969H3.16536C1.88203 0.667969 0.843698 1.71797 0.843698 3.0013L0.832031 17.0013C0.832031 18.2846 1.88203 19.3346 3.16536 19.3346H21.832C23.1154 19.3346 24.1654 18.2846 24.1654 17.0013V3.0013C24.1654 1.71797 23.1154 0.667969 21.832 0.667969ZM21.3654 5.6263L13.117 10.783C12.7437 11.0163 12.2537 11.0163 11.8804 10.783L3.63203 5.6263C3.34036 5.43964 3.16536 5.12464 3.16536 4.7863C3.16536 4.00464 4.01703 3.53797 4.68203 3.9463L12.4987 8.83464L20.3154 3.9463C20.9804 3.53797 21.832 4.00464 21.832 4.7863C21.832 5.12464 21.657 5.43964 21.3654 5.6263Z" fill="#282531"/>
</svg>
