<svg width="20" height="20" viewBox="0 0 20 20" fill="none" xmlns="http://www.w3.org/2000/svg">
<path d="M15 13.4326C14.3667 13.4326 13.8 13.6826 13.3667 14.0742L7.425 10.6159C7.46667 10.4242 7.5 10.2326 7.5 10.0326C7.5 9.83255 7.46667 9.64089 7.425 9.44922L13.3 6.02422C13.75 6.44089 14.3417 6.69922 15 6.69922C16.3833 6.69922 17.5 5.58255 17.5 4.19922C17.5 2.81589 16.3833 1.69922 15 1.69922C13.6167 1.69922 12.5 2.81589 12.5 4.19922C12.5 4.39922 12.5333 4.59089 12.575 4.78255L6.7 8.20755C6.25 7.79089 5.65833 7.53255 5 7.53255C3.61667 7.53255 2.5 8.64922 2.5 10.0326C2.5 11.4159 3.61667 12.5326 5 12.5326C5.65833 12.5326 6.25 12.2742 6.7 11.8576L12.6333 15.3242C12.5917 15.4992 12.5667 15.6826 12.5667 15.8659C12.5667 17.2076 13.6583 18.2992 15 18.2992C16.3417 18.2992 17.4333 17.2076 17.4333 15.8659C17.4333 14.5242 16.3417 13.4326 15 13.4326Z" fill="#282531"/>
</svg>
