<svg width="18" height="22" viewBox="0 0 18 22" fill="none" xmlns="http://www.w3.org/2000/svg">
<path d="M17.3082 7.62903C17.2085 7.69052 15.0146 8.96782 15.0395 11.6251C15.0671 14.8035 17.8258 15.8619 17.8575 15.8739C17.8328 15.9496 17.4164 17.3814 16.4033 18.8601C15.5278 20.1412 14.6208 21.415 13.1893 21.4416C11.783 21.4674 11.3297 20.6072 9.72311 20.6072C8.11552 20.6072 7.61235 21.415 6.28242 21.4674C4.90073 21.5196 3.84881 20.084 2.96681 18.8099C1.16375 16.2027 -0.214821 11.4415 1.63629 8.22846C2.55528 6.63274 4.19787 5.62179 5.98012 5.59568C7.33744 5.57002 8.6175 6.50815 9.44774 6.50815C10.2661 6.50815 11.7329 5.41456 13.4617 5.54246C14.1394 5.59268 16.0629 5.79491 17.3082 7.62903ZM12.395 3.82128C13.1292 2.93387 13.6233 1.69799 13.4872 0.46875C12.4304 0.51066 11.1523 1.17269 10.3943 2.05954C9.71549 2.84516 9.11935 4.1034 9.28121 5.30755C10.4591 5.39857 11.6613 4.70925 12.395 3.82128Z" fill="white"/>
</svg>
